<svg width="58" height="43" viewBox="0 0 58 43" fill="none" xmlns="http://www.w3.org/2000/svg">
<path fill-rule="evenodd" clip-rule="evenodd" d="M43.67 10.9C41.17 10.8 38.67 11.5 36.37 12.8C34.67 13.8 34.67 13.8 34.67 11.7C34.67 11 34.67 10.4 34.67 9.7C34.67 7.2 34.67 4.7 34.67 2.2C34.67 0.3 34.37 0 32.47 0C31.87 0 31.37 0 30.77 0C28.97 0 28.87 0.0999999 28.87 1.8C28.87 5.6 28.87 9.3 28.87 13.1C28.87 16.9 28.87 20.6 28.87 24.4C28.87 25.1 28.77 25.8 29.37 26.2C30.57 27.1 31.87 28 33.27 28.7C33.97 29.1 34.57 28.7 34.67 27.9C34.77 27.1 34.77 26.4 34.67 25.6C34.57 23.8 35.17 22.1 36.17 20.6C39.57 15.3 46.87 15.1 50.57 20.1C52.57 22.7 52.87 25.7 52.37 28.8C51.97 31.1 50.77 32.9 48.77 34.3C45.47 36.6 41.87 36.8 38.17 35.8C34.67 34.8 31.67 32.8 28.77 30.8C26.57 29.3 24.57 27.6 22.37 26.1C18.77 23.5 14.67 22.6 10.27 23.6C5.57 24.7 2.17 27.5 0.27 31.9C-0.33 33.2 0.0699999 33.7 1.47 33.8C2.67 33.8 3.87 33.8 5.07 33.8C5.87 33.8 6.47 33.5 6.77 32.8C6.87 32.6 7.07 32.3 7.17 32.1C8.77 29.5 11.67 28.3 14.67 29.1C15.97 29.5 17.27 30 18.47 30.8C21.17 32.5 23.67 34.3 26.17 36.2C31.27 40 36.67 42.7 43.37 42.1C47.87 41.7 51.67 40.1 54.57 36.6C56.87 33.9 57.97 30.7 57.97 27.1C57.97 23.9 57.47 20.9 55.77 18.2C53.27 13.5 49.07 11.1 43.67 10.9Z" fill="#AEC264"/>
</svg>
