<svg width="50" height="50" viewBox="0 0 50 50" fill="none" xmlns="http://www.w3.org/2000/svg">
<path fill-rule="evenodd" clip-rule="evenodd" d="M11.2903 0H38.7097C44.9193 0 50 5.10419 50 11.3425V38.6574C50 44.8959 44.9193 50 38.7097 50H28.0288V32.651H34.7918L36.1946 24.9761H28.0288V22.2617C28.0288 18.2058 29.6126 16.6459 33.7118 16.6459C34.9853 16.6459 36.01 16.677 36.6001 16.7394V9.782C35.4821 9.47002 32.7491 9.15794 31.1654 9.15794C22.8114 9.15794 18.9606 13.1203 18.9606 21.6689V24.9761H13.8054V32.651H18.9606V50H11.2903C5.08066 50 0 44.8959 0 38.6574V11.3425C0 5.10419 5.08066 0 11.2903 0Z" fill="#A8C453"/>
</svg>
