<svg width="1000" height="219" viewBox="0 0 1000 219" fill="none" xmlns="http://www.w3.org/2000/svg">
<mask id="mask0_99_79" style="mask-type:luminance" maskUnits="userSpaceOnUse" x="108" y="0" width="711" height="188">
<path d="M108.974 0H818.065V188H108.974V0Z" fill="white"/>
</mask>
<g mask="url(#mask0_99_79)">
<path fill-rule="evenodd" clip-rule="evenodd" d="M109.434 188.036C115.41 176.875 133.479 169.427 142.899 160.229C158.857 144.661 166.788 124.672 183.997 109.385C189.885 104.146 196.233 97.6406 204.036 94.0573C212.563 90.1406 224.69 91.2136 232.317 85.9844C243.374 78.3959 257.214 56.0781 269.476 45.0573C279.485 36.0625 305.276 -0.88019 324.597 1.15106C339.004 2.66668 354.332 25.2292 368.172 31.8281C377.937 36.4844 393.983 21.5886 408.566 30.5625C417.953 36.3438 422.203 46.6459 430.208 53.5417C440.4 62.3334 464.986 86.0729 478.527 90.8125C488.834 94.4167 502.491 93.9844 511.985 98.9427C517.257 101.693 521.277 106.495 527.564 107.917C541.383 111.021 557.78 107.568 572.005 108.573C575.26 108.802 583.997 112.448 586.636 110.068C597.16 100.563 614.613 67.7344 636.16 70.3125C642.183 71.0365 651.759 82.0573 656.719 85.2917C666.539 91.6979 677.61 93.5052 686.252 101.766C695.463 110.578 697.919 122.193 708.815 130.323C727.628 144.359 741.948 138.276 762.257 146.276C772.002 150.12 778.965 159.766 786.355 165.974C795.613 173.76 809.398 178.87 817.553 187.422L109.434 188.036Z" fill="url(#paint0_linear_99_79)"/>
</g>
<mask id="mask1_99_79" style="mask-type:luminance" maskUnits="userSpaceOnUse" x="0" y="78" width="1001" height="139">
<path d="M0.970215 78L1000.75 79.4901L999.784 216.021L8.86563e-06 214.531L0.970215 78Z" fill="white"/>
</mask>
<g mask="url(#mask1_99_79)">
<path d="M760.012 80.2046L759.831 80.2044C745.813 83.0365 736.901 84.3372 733.096 84.1064C730.261 84.3011 722.434 83.3472 709.586 81.2341C705.513 81.0238 702.344 81.1814 700.089 81.7068L661.251 100.903C656.182 102.613 647.261 103.85 634.469 104.617L589.968 143.373C586.122 146.084 576.396 149.21 560.78 152.742C558.047 153.224 554.715 152.277 550.8 149.9L520.658 124.361C502.278 113.911 489.201 107.981 481.434 106.587C475.767 106.416 470.052 107.664 464.299 110.326L426.339 130.863C422.24 131.679 412.589 128.22 397.406 120.486C394.872 119.912 392.171 120.013 389.293 120.783L355.566 143.144C350.595 145.796 346.453 147.229 343.122 147.434L314.288 144.485C313.623 144.128 307.533 145.805 296.028 149.51C292.904 150.049 290.079 150.166 287.562 149.853L249.809 134.5C241.287 132.048 233.449 131.319 226.285 132.314L187.646 147.757C185.103 148.413 182.208 148.953 178.951 149.372C165.064 149.964 156.606 150.485 153.588 150.936C149.138 151.385 144.868 152.085 140.777 153.037C135.206 154.186 120.687 160.373 97.2303 171.603C94.6957 172.453 86.7142 173.085 73.2955 173.505C70.832 173.747 66.7598 174.798 61.0787 176.659C54.7633 179.173 34.4166 191.758 0.0292532 214.422L999.897 213.928C979.643 196.015 950.88 179.016 913.61 162.921C903.596 158.283 888.125 154.706 867.189 152.188L834.843 133.388L806.666 126.609L772.967 87.3906C767.222 82.1 762.897 79.7064 760.012 80.2046Z" fill="#1D4B66"/>
</g>
<defs>
<linearGradient id="paint0_linear_99_79" x1="463.494" y1="1.07043" x2="463.494" y2="188.036" gradientUnits="userSpaceOnUse">
<stop offset="0.425782" stop-color="#64A0B9"/>
<stop offset="1" stop-color="#87D0EF"/>
</linearGradient>
</defs>
</svg>
