<svg width="944" height="154" viewBox="0 0 944 154" fill="none" xmlns="http://www.w3.org/2000/svg">
<mask id="mask0_111_79" style="mask-type:luminance" maskUnits="userSpaceOnUse" x="0" y="0" width="720" height="154">
<path d="M720 6.10352e-05H-6.10021e-05V154H720V6.10352e-05Z" fill="white"/>
</mask>
<g mask="url(#mask0_111_79)">
<path fill-rule="evenodd" clip-rule="evenodd" d="M719.533 154.03C713.465 144.887 695.118 138.786 685.553 131.252C669.35 118.499 661.297 102.125 643.823 89.6031C637.844 85.3111 631.399 79.9824 623.476 77.0471C614.818 73.8387 602.504 74.7176 594.76 70.4342C583.532 64.218 569.48 45.9365 557.029 36.9088C546.866 29.5407 520.678 -0.720868 501.06 0.943027C486.431 2.18455 470.867 20.6666 456.815 26.0721C446.899 29.8863 430.607 17.6844 415.799 25.0354C406.268 29.7711 401.953 38.21 393.824 43.8587C383.475 51.0604 358.511 70.5067 344.761 74.3891C334.296 77.3415 320.429 76.9873 310.788 81.049C305.436 83.3016 301.354 87.2352 294.97 88.4C280.939 90.9427 264.289 88.1141 249.845 88.9375C246.54 89.1253 237.669 92.1117 234.989 90.162C224.304 82.3758 206.582 55.4847 184.703 57.5966C178.588 58.1896 168.864 67.2173 163.828 69.8667C153.857 75.1144 142.615 76.5948 133.84 83.3614C124.488 90.5801 121.994 100.094 110.931 106.754C91.8281 118.252 77.288 113.269 56.6666 119.822C46.7716 122.971 39.7008 130.872 32.1972 135.958C22.7969 142.336 8.7997 146.521 0.51954 153.527L719.533 154.03Z" fill="url(#paint0_linear_111_79)"/>
</g>
<mask id="mask1_111_79" style="mask-type:luminance" maskUnits="userSpaceOnUse" x="69" y="12" width="875" height="142">
<path d="M944 12H69V154H944V12Z" fill="white"/>
</mask>
<g mask="url(#mask1_111_79)">
<path fill-rule="evenodd" clip-rule="evenodd" d="M943.432 154.028C936.059 145.597 913.762 139.971 902.138 133.024C882.447 121.266 872.659 106.167 851.423 94.6209C844.158 90.6633 836.325 85.7498 826.697 83.0432C816.175 80.0849 801.21 80.8953 791.799 76.9456C778.154 71.2138 761.076 54.3568 745.945 46.0326C733.594 39.2387 701.769 11.3351 677.928 12.8694C660.149 14.0141 641.234 31.056 624.157 36.0404C612.107 39.5573 592.307 28.3062 574.311 35.0844C562.729 39.4511 557.484 47.2325 547.605 52.441C535.029 59.0815 504.691 77.0125 487.981 80.5924C475.262 83.3147 458.411 82.9882 446.694 86.7333C440.189 88.8104 435.229 92.4375 427.471 93.5115C410.419 95.8561 390.185 93.2479 372.631 94.0072C368.615 94.1803 357.834 96.934 354.577 95.1362C341.591 87.9568 320.055 63.161 293.466 65.1083C286.034 65.6552 274.217 73.9794 268.096 76.4224C255.979 81.2612 242.317 82.6262 231.653 88.8655C220.288 95.5217 217.257 104.294 203.812 110.435C180.597 121.037 162.926 116.443 137.866 122.485C125.841 125.388 117.248 132.674 108.129 137.363C96.7047 143.245 79.6942 147.104 69.6315 153.563L943.432 154.028Z" fill="#1D4B66"/>
</g>
<defs>
<linearGradient id="paint0_linear_111_79" x1="360.026" y1="0.876984" x2="360.026" y2="154.03" gradientUnits="userSpaceOnUse">
<stop offset="0.40261" stop-color="#64A0B9"/>
<stop offset="1" stop-color="#87D0EF"/>
</linearGradient>
</defs>
</svg>
