<svg width="838" height="127" viewBox="0 0 838 127" fill="none" xmlns="http://www.w3.org/2000/svg">
<mask id="mask0_104_79" style="mask-type:luminance" maskUnits="userSpaceOnUse" x="46" y="0" width="675" height="126">
<path d="M720.095 0H46.8627V126H720.095V0Z" fill="white"/>
</mask>
<g mask="url(#mask0_104_79)">
<path fill-rule="evenodd" clip-rule="evenodd" d="M719.659 126.024C713.985 118.544 696.83 113.552 687.886 107.388C672.736 96.954 665.205 83.5567 648.866 73.3115C643.276 69.7999 637.25 65.44 629.841 63.0384C621.746 60.4134 610.232 61.1325 602.991 57.6278C592.492 52.5419 579.352 37.5843 567.71 30.198C558.207 24.1695 533.721 -0.589926 515.377 0.771443C501.698 1.78723 487.145 16.9089 474.005 21.3316C464.734 24.4523 449.5 14.4689 435.654 20.4834C426.742 24.358 422.707 31.2626 415.106 35.8843C405.43 41.7766 382.087 57.6872 369.23 60.8637C359.445 63.2793 346.479 62.9895 337.464 66.3127C332.459 68.1558 328.642 71.3742 322.673 72.3271C309.553 74.4076 293.985 72.0933 280.479 72.767C277.389 72.9205 269.094 75.364 266.588 73.7688C256.597 67.3983 240.027 45.3964 219.569 47.1243C213.85 47.6095 204.759 54.9958 200.049 57.1636C190.726 61.4571 180.215 62.6684 172.01 68.2046C163.265 74.1109 160.933 81.8951 150.588 87.3441C132.726 96.7515 119.131 92.6744 99.8487 98.0361C90.5964 100.612 83.9849 107.077 76.9686 111.238C68.179 116.456 55.0909 119.881 47.3486 125.613L719.659 126.024Z" fill="url(#paint0_linear_104_79)"/>
</g>
<mask id="mask1_104_79" style="mask-type:luminance" maskUnits="userSpaceOnUse" x="0" y="0" width="838" height="127">
<path d="M0.718018 0H837.256V127H0.718018V0Z" fill="white"/>
</mask>
<g mask="url(#mask1_104_79)">
<path fill-rule="evenodd" clip-rule="evenodd" d="M1.26099 127.025C8.31061 119.485 29.6271 114.453 40.7405 108.24C59.5661 97.7234 68.923 84.2198 89.2255 73.8933C96.1714 70.3538 103.66 65.9593 112.865 63.5387C122.925 60.8929 137.232 61.6176 146.229 58.0852C159.275 52.9589 175.601 37.8825 190.068 30.4376C201.876 24.3614 232.302 -0.594626 255.095 0.777548C272.093 1.8014 290.176 17.0431 306.502 21.5009C318.023 24.6463 336.952 14.5837 354.157 20.6459C365.231 24.5513 370.244 31.5107 379.689 36.1691C391.713 42.1081 420.717 58.145 436.693 61.3467C448.852 63.7815 464.963 63.4894 476.164 66.8389C482.384 68.6967 487.126 71.9406 494.543 72.9011C510.846 74.9981 530.19 72.6654 546.972 73.3445C550.812 73.4993 561.119 75.9621 564.233 74.3542C576.647 67.9332 597.237 45.7567 622.657 47.4983C629.763 47.9874 641.06 55.4323 646.912 57.6172C658.496 61.9449 671.558 63.1657 681.753 68.7459C692.619 74.699 695.517 82.5451 708.371 88.0373C730.565 97.5194 747.459 93.4099 771.418 98.8141C782.915 101.411 791.13 107.927 799.848 112.121C810.77 117.381 827.033 120.832 836.653 126.609L1.26099 127.025Z" fill="#1D4B66"/>
</g>
<defs>
<linearGradient id="paint0_linear_104_79" x1="383.504" y1="0.717407" x2="383.504" y2="126.024" gradientUnits="userSpaceOnUse">
<stop offset="0.425782" stop-color="#64A0B9"/>
<stop offset="1" stop-color="#87D0EF"/>
</linearGradient>
</defs>
</svg>
