<svg width="287" height="68" viewBox="0 0 287 68" fill="none" xmlns="http://www.w3.org/2000/svg">
<path d="M259.834 7.26796C259.834 7.50623 259.822 7.74336 259.798 7.98048C259.775 8.21761 259.741 8.45243 259.694 8.6861C259.648 8.91977 259.591 9.14999 259.522 9.3779C259.454 9.60582 259.374 9.82913 259.283 10.049C259.193 10.2688 259.092 10.4841 258.98 10.6936C258.869 10.9042 258.746 11.108 258.616 11.306C258.484 11.504 258.344 11.695 258.193 11.8781C258.043 12.0622 257.885 12.2384 257.717 12.4076C257.549 12.5756 257.374 12.7356 257.191 12.8864C257.008 13.0372 256.819 13.1788 256.622 13.3112C256.426 13.4436 256.222 13.5656 256.014 13.6772C255.805 13.79 255.591 13.8913 255.373 13.9823C255.154 14.0732 254.931 14.1538 254.706 14.2228C254.479 14.2919 254.249 14.3495 254.017 14.3967C253.785 14.4427 253.551 14.4772 253.316 14.5014C253.081 14.5244 252.844 14.5359 252.608 14.5359C252.371 14.5359 252.135 14.5244 251.899 14.5014C251.664 14.4772 251.43 14.4427 251.198 14.3967C250.966 14.3495 250.737 14.2919 250.51 14.2228C250.284 14.1538 250.06 14.0732 249.842 13.9823C249.623 13.8913 249.41 13.79 249.201 13.6772C248.993 13.5656 248.79 13.4436 248.593 13.3112C248.396 13.1788 248.206 13.0372 248.023 12.8864C247.84 12.7356 247.665 12.5756 247.498 12.4076C247.331 12.2384 247.172 12.0622 247.022 11.8781C246.872 11.695 246.731 11.504 246.6 11.306C246.468 11.108 246.347 10.9042 246.235 10.6936C246.124 10.4841 246.022 10.2688 245.931 10.049C245.841 9.82913 245.762 9.60582 245.693 9.3779C245.625 9.14999 245.566 8.91977 245.521 8.6861C245.475 8.45243 245.439 8.21761 245.416 7.98048C245.394 7.74336 245.382 7.50623 245.382 7.26796C245.382 7.02968 245.394 6.79256 245.416 6.55543C245.439 6.31831 245.475 6.08349 245.521 5.84981C245.566 5.61614 245.625 5.38593 245.693 5.15801C245.762 4.93009 245.841 4.70678 245.931 4.48692C246.022 4.26707 246.124 4.05181 246.235 3.84116C246.347 3.63166 246.468 3.42792 246.6 3.22993C246.731 3.03195 246.872 2.84087 247.022 2.65669C247.172 2.47252 247.331 2.2964 247.498 2.12834C247.665 1.96028 247.84 1.80028 248.023 1.64949C248.206 1.4987 248.396 1.35711 248.593 1.22474C248.79 1.09236 248.993 0.970345 249.201 0.857539C249.41 0.745883 249.623 0.644587 249.842 0.553651C250.06 0.461564 250.284 0.382139 250.51 0.313073C250.737 0.244008 250.966 0.186454 251.198 0.139259C251.43 0.0932154 251.664 0.0586826 251.899 0.0345098C252.135 0.011488 252.371 -2.28882e-05 252.608 -2.28882e-05C252.844 -2.28882e-05 253.081 0.011488 253.316 0.0345098C253.551 0.0586826 253.785 0.0932154 254.017 0.139259C254.249 0.186454 254.479 0.244008 254.706 0.313073C254.931 0.382139 255.154 0.461564 255.373 0.553651C255.591 0.644587 255.805 0.745883 256.014 0.857539C256.222 0.970345 256.426 1.09236 256.622 1.22474C256.819 1.35711 257.008 1.4987 257.191 1.64949C257.374 1.80028 257.549 1.96028 257.717 2.12834C257.885 2.2964 258.043 2.47252 258.193 2.65669C258.344 2.84087 258.484 3.03195 258.616 3.22993C258.746 3.42792 258.869 3.63166 258.98 3.84116C259.092 4.05181 259.193 4.26707 259.283 4.48692C259.374 4.70678 259.454 4.93009 259.522 5.15801C259.591 5.38593 259.648 5.61614 259.694 5.84981C259.741 6.08349 259.775 6.31831 259.798 6.55543C259.822 6.79256 259.834 7.02968 259.834 7.26796Z" fill="#1D4B66"/>
<path d="M251.681 64.6682C250.916 64.1594 250.206 63.5505 249.548 62.8426C247.869 61.0423 246.401 59.1303 245.139 57.1147C244.733 56.4632 244.342 55.837 243.968 55.2339C243.684 54.4085 243.26 53.3841 242.694 52.1581C241.671 49.9446 240.814 48.2145 240.119 46.9656C238.657 44.3365 236.951 41.8455 234.948 39.6366C233.774 38.3405 232.47 36.9097 231.033 35.343C230.57 34.8354 229.919 34.0596 229.086 33.0155C227.66 31.229 226.561 29.3182 225.792 27.2785C224.769 24.5688 224.206 21.8557 223.879 18.9803C223.667 17.1259 223.671 15.2749 223.89 13.4251C223.895 13.394 223.89 13.3653 223.885 13.3342C223.877 13.295 223.89 13.2617 223.926 13.2329C223.958 13.2064 223.964 13.1558 223.937 13.1235C223.919 13.1005 223.884 13.0902 223.832 13.0856C225.3 10.7224 226.957 8.67342 228.804 6.93873C229.097 6.66247 229.735 6.09959 230.711 5.24778C231.529 4.53411 232.19 4 232.692 3.63971C233.622 2.97553 234.606 2.35855 235.644 1.78991C235.68 1.76919 235.719 1.81293 235.695 1.84977C234.804 3.16431 234.141 4.60087 233.708 6.1606C232.871 9.16839 232.852 12.4674 233.742 15.4775C234.193 17.0039 234.801 18.4554 235.571 19.8332C236.287 21.1179 237.206 22.7179 238.324 24.6321C239.392 26.4589 240.39 28.2811 241.213 30.1965C242.821 33.9398 244.028 37.6256 244.837 41.2504C245.316 43.3914 245.694 45.3633 245.975 47.1659C246.338 49.4853 246.703 51.5538 247.073 53.3691C247.725 56.5588 248.625 59.2857 249.773 61.5522C250.02 62.0437 250.658 63.0831 251.681 64.6716V64.6682Z" fill="#62A0B9"/>
<path d="M281.103 12.7609C281.172 13.0142 281.233 13.2559 281.286 13.4861C281.338 13.7244 281.367 13.9661 281.368 14.2124C281.374 15.1264 281.368 16.0404 281.35 16.9555C281.293 19.5995 280.865 22.163 280.062 24.6459C279.442 26.5682 278.504 28.4134 277.319 30.0042C276.333 31.3338 275.405 32.4066 274.537 33.2238C272.563 35.0829 270.303 36.8463 268.001 38.5062C266.238 39.7804 264.576 41.1284 263.02 42.55C262.309 43.198 261.7 43.815 261.198 44.3998C260.191 45.5693 259.35 46.6605 258.676 47.6735C258.013 48.6726 257.394 49.8318 256.822 51.1509C256.348 52.2421 256.038 53.4692 255.808 54.6157C255.133 57.9596 255.625 61.0952 257.284 64.0166C257.352 64.1375 257.523 64.393 257.793 64.789C257.97 65.0446 258.129 65.3105 258.268 65.5867C257.927 65.4371 257.617 65.2483 257.34 65.0215C255.646 63.6425 254.297 61.9907 253.296 60.0673C252.094 57.7662 251.389 55.365 251.185 52.8672C251.097 51.8139 251.042 50.7227 251.104 49.6706C251.198 48.0061 251.388 46.535 251.667 45.2539C252.058 43.472 252.643 41.7338 253.427 40.0383C254.684 37.324 256.256 34.8526 258.148 32.6253C259.01 31.6089 259.993 30.5556 261.095 29.4644C263.054 27.5259 264.723 25.7901 266.103 24.2592C266.873 23.4027 267.662 22.4416 268.467 21.3803C269.94 19.4349 271.059 17.3526 271.638 14.9699C272.618 10.9295 272.224 7.09526 270.458 3.47048C270.19 2.91796 269.89 2.42069 269.556 1.97752C269.449 1.83708 269.472 1.80946 269.623 1.89924C273.252 4.0161 276.435 6.72576 279.178 10.0271C279.811 10.788 280.454 11.6996 281.105 12.7609H281.103Z" fill="#62A0B9"/>
<path d="M281.103 12.7609L281.973 14.0306C281.933 14.0237 281.909 14.0202 281.906 14.0237C281.85 14.0582 281.83 14.1307 281.859 14.194C282.32 15.1886 282.665 16.2073 282.891 17.2467C283.193 18.62 283.356 19.5903 283.382 20.1532C283.502 22.6879 283.394 24.9015 283.055 26.7962C282.617 29.2526 281.742 31.7159 280.43 34.1861C279.634 35.6826 278.676 37.0466 277.557 38.2783C276.135 39.8426 274.614 41.2251 272.992 42.4256C272.568 42.7387 272.121 43.0772 271.649 43.4398C269.914 44.7693 268.774 45.6717 268.227 46.1437C266.336 47.769 264.607 49.6107 263.04 51.67C262.632 52.2053 262.295 52.7889 261.917 53.3587C260.797 55.0404 259.992 56.8983 259.493 58.93C259.142 60.3527 259.056 61.7904 259.231 63.2385C259.296 63.7772 259.422 64.2676 259.609 64.7153C259.945 65.5142 260.203 66.1749 260.384 66.6964C259.641 66.5605 258.933 66.191 258.265 65.5867C258.125 65.3105 257.966 65.0446 257.79 64.789C257.519 64.3953 257.349 64.1375 257.281 64.0166C255.621 61.0929 255.13 57.9596 255.804 54.6157C256.034 53.4692 256.347 52.2421 256.818 51.1509C257.39 49.8318 258.01 48.6715 258.672 47.6735C259.346 46.6605 260.188 45.5693 261.194 44.3998C261.698 43.815 262.306 43.198 263.016 42.55C264.573 41.1284 266.234 39.7804 267.998 38.5062C270.299 36.844 272.561 35.0828 274.535 33.2238C275.402 32.4066 276.329 31.3337 277.317 30.0042C278.5 28.4134 279.44 26.5682 280.06 24.6459C280.862 22.163 281.29 19.5995 281.347 16.9555C281.367 16.0404 281.372 15.1264 281.365 14.2124C281.365 13.9661 281.335 13.7244 281.282 13.4861C281.232 13.2559 281.17 13.0142 281.099 12.7609H281.103Z" fill="#377595"/>
<path d="M223.831 13.0856C223.883 13.0902 223.918 13.1005 223.936 13.1235C223.962 13.1558 223.958 13.2064 223.923 13.2329C223.889 13.2617 223.875 13.2951 223.884 13.3342C223.89 13.3653 223.894 13.3941 223.889 13.4251C223.669 15.2738 223.667 17.1259 223.878 18.9803C224.205 21.8557 224.768 24.5688 225.791 27.2785C226.56 29.3182 227.659 31.229 229.083 33.0155C229.918 34.0596 230.567 34.8354 231.032 35.343C232.469 36.9097 233.772 38.3405 234.947 39.6366C236.95 41.8455 238.656 44.3365 240.118 46.9656C240.811 48.2145 241.671 49.9446 242.693 52.1581C243.258 53.3841 243.683 54.4085 243.967 55.2339C243.528 54.7366 243.101 54.2393 242.692 53.7409C242.188 53.1308 241.761 52.6335 241.416 52.2479C240.311 51.0174 239.171 49.7075 238.061 48.5794C236.136 46.6226 234.142 44.9753 232.002 43.1808C230.159 41.6349 228.444 39.7517 226.85 37.5278C225.297 35.3603 224.066 32.9948 223.159 30.429C222.83 29.5024 222.59 28.6667 222.433 27.9208C222.113 26.3841 221.915 25.0143 221.842 23.816C221.779 22.818 221.786 21.6992 221.865 20.4617C221.923 19.5144 222.144 18.6189 222.302 17.6853C222.369 17.2813 222.472 16.8473 222.612 16.3857C222.854 15.5846 223.091 14.7604 223.321 13.9132C223.403 13.66 223.572 13.3825 223.831 13.0856Z" fill="#377595"/>
<path d="M223.321 13.9121C223.091 14.7593 222.854 15.5846 222.612 16.3834C222.472 16.8462 222.369 17.2801 222.302 17.683C222.144 18.6166 221.924 19.5133 221.864 20.4606C221.788 21.698 221.779 22.8157 221.842 23.8149C221.917 25.0132 222.113 26.3807 222.433 27.9185C222.59 28.6667 222.83 29.5013 223.159 30.4267C224.066 32.9925 225.298 35.3592 226.85 37.5255C228.443 39.7506 230.159 41.6326 232.002 43.1785C234.142 44.9719 236.136 46.6191 238.061 48.5771C239.171 49.7063 240.31 51.0163 241.416 52.2468C241.762 52.6313 242.188 53.1308 242.692 53.7398C243.101 54.2382 243.528 54.7354 243.966 55.2327C244.341 55.8347 244.731 56.4621 245.138 57.1136C246.398 59.1303 247.868 61.04 249.545 62.8414C250.204 63.5493 250.914 64.1583 251.679 64.667C252.488 65.6006 253.458 66.3776 254.589 67.0015C254.851 67.1465 255.107 67.1983 255.388 67.2731C255.409 67.2777 255.428 67.2881 255.44 67.3053L255.468 67.3341C255.5 67.3687 255.477 67.4262 255.429 67.4274C253.511 67.4746 251.667 67.5517 249.826 67.402C248.954 67.3307 248.075 67.2202 247.19 67.0728C245.825 66.8461 244.59 66.5963 243.487 66.32C242.528 66.0794 241.411 65.7203 240.141 65.2426C236.569 63.8958 233.383 62.0426 230.58 59.6771C229.323 58.6158 227.981 57.2978 226.886 55.9832C223.393 51.7829 220.65 46.7423 219.357 41.468C218.311 37.2044 218.022 32.8763 218.488 28.4837C218.691 26.5625 219.076 24.7714 219.486 22.9654C219.857 21.3366 220.443 19.6261 221.243 17.8373C221.882 16.4122 222.573 15.1046 223.317 13.9144L223.321 13.9121Z" fill="#1D4B66"/>
<path d="M281.974 14.0306C282.39 14.6775 282.771 15.3417 283.118 16.0254C285.918 21.5426 287.134 27.5225 286.988 33.6866C286.887 37.9641 286.032 42.0665 284.423 45.9895C283.679 47.7978 282.77 49.5935 281.695 51.3743C280.447 53.4428 278.861 55.4963 276.937 57.5349C275.449 59.1096 273.794 60.5035 271.97 61.7156C268.425 64.0719 264.564 65.7318 260.387 66.6976C260.205 66.1761 259.946 65.5142 259.611 64.7165C259.423 64.2699 259.297 63.7784 259.233 63.2408C259.057 61.7916 259.144 60.3551 259.494 58.9312C259.993 56.9006 260.8 55.0428 261.919 53.3599C262.298 52.7901 262.635 52.2065 263.043 51.6724C264.609 49.6108 266.336 47.769 268.228 46.1449C268.775 45.6729 269.916 44.7716 271.65 43.4421C272.124 43.0795 272.57 42.7411 272.993 42.428C274.614 41.2262 276.135 39.8449 277.558 38.2795C278.679 37.0489 279.637 35.6838 280.431 34.1885C281.742 31.7171 282.617 29.2549 283.057 26.7973C283.395 24.9027 283.503 22.688 283.385 20.1556C283.357 19.5904 283.194 18.6212 282.893 17.2479C282.665 16.2085 282.32 15.1898 281.861 14.1964C281.833 14.1319 281.852 14.0594 281.907 14.0249C281.912 14.0226 281.935 14.0249 281.975 14.0329L281.974 14.0306Z" fill="#1D4B66"/>
<path d="M7.68489 18.0226H0.810425V36.0176H4.67052V30.4129H7.68832C11.2886 30.4129 13.9986 27.7631 13.9986 24.2166C13.9986 20.6689 11.2669 18.0191 7.68832 18.0191L7.68489 18.0226ZM7.50064 26.8158H4.66365V21.6508H7.50064C9.03186 21.6508 10.0824 22.7329 10.0824 24.2224C10.0824 25.7119 9.03529 26.8192 7.50064 26.8192V26.8158Z" fill="#1C4B68"/>
<path d="M31.7518 18.0226V24.9659H25.0044V18.0226H21.1443V36.0176H25.0044V28.5873H31.7518V36.0176H35.6119V18.0226H31.7518Z" fill="#1C4B68"/>
<path d="M59.0711 18.0226H54.9307L50.7868 25.248L46.6738 18.0226H42.5619L48.7943 28.7415V36.0176H52.7574V28.7668L59.0711 18.0226Z" fill="#1C4B68"/>
<path d="M71.8908 36.3779C75.5987 36.3779 78.6691 34.5027 78.6691 30.6201C78.6691 26.7375 75.2428 25.7303 72.5305 25.0408C70.6125 24.5769 69.0824 24.1913 69.0824 22.9308C69.0824 21.7475 70.3321 21.2054 71.5852 21.2054C73.0455 21.2054 74.3238 21.9271 74.3238 23.4949H78.1301C78.1301 19.8943 75.8047 17.6865 71.6882 17.6865C67.5729 17.6865 65.1971 19.641 65.1971 23.0874C65.1971 26.97 68.4678 27.7631 71.1801 28.4307C73.1233 28.8705 74.7598 29.2561 74.7598 30.6673C74.7598 32.0026 73.3259 32.7773 71.8725 32.7773C70.2852 32.7773 68.8547 31.9312 68.8547 30.2057H64.9442C64.9442 34.0607 67.7823 36.3744 71.8942 36.3744L71.8908 36.3779Z" fill="#1C4B68"/>
<path d="M86.2268 36.0199H90.0869V18.0249H86.2268V36.0199Z" fill="#1C4B68"/>
<path d="M107.133 36.4308C112.577 36.4308 116.639 32.3916 116.639 27.0229C116.639 21.6543 112.577 17.637 107.133 17.637C101.689 17.637 97.5702 21.7015 97.5702 27.0229C97.5702 32.3444 101.658 36.4308 107.133 36.4308ZM107.133 32.7519C103.934 32.7519 101.508 30.2598 101.508 27.0229C101.508 23.7861 103.934 21.3124 107.133 21.3124C110.331 21.3124 112.702 23.755 112.702 27.0229C112.702 30.2909 110.328 32.7519 107.133 32.7519Z" fill="#1C4B68"/>
<path d="M132.323 36.4308C136.747 36.4308 140.222 33.4483 141.043 28.9982H137.133C136.494 31.2659 134.677 32.7024 132.325 32.7024C129.285 32.7024 127.012 30.2874 127.012 27.0448C127.012 23.8022 129.289 21.3653 132.325 21.3653C134.579 21.3653 136.366 22.7017 137.108 24.8082H140.969C140.148 20.5412 136.671 17.637 132.325 17.637C127.063 17.637 123.075 21.7015 123.075 27.0448C123.075 32.3882 127.063 36.4308 132.325 36.4308H132.323Z" fill="#1C4B68"/>
<path d="M160.124 36.0199H164.343L157.109 18.0249H153.459L146.427 36.0199H150.546L151.772 32.6241H158.877L160.127 36.0199H160.124ZM155.319 22.78L157.673 29.2307H152.969L155.323 22.78H155.319Z" fill="#1C4B68"/>
<path d="M180.896 36.0199H185.217L181.254 29.2342C183.25 28.2581 184.525 26.3553 184.525 23.9898C184.525 20.5158 181.84 18.0249 178.267 18.0249H171.058V36.0199H174.919V29.9018H177.397L180.898 36.0199H180.896ZM174.919 21.622H178.008C179.645 21.622 180.59 22.6258 180.59 23.9622C180.59 25.2975 179.645 26.3012 178.008 26.3012H174.919V21.622Z" fill="#1C4B68"/>
<path d="M196.254 32.4204V28.7162H202.464V25.195H196.254V21.622H203.129V18.0226H192.394V36.0176H203.41V32.417H196.254V32.4204Z" fill="#1C4B68"/>
<path d="M5.16603 42.2392V41.5716H2.04523V47.1624H2.74332V44.7359H4.9566V44.089H2.74332V42.2392H5.16603Z" fill="#64A0B9"/>
<path d="M6.89642 47.1624H7.59451V41.5716H6.89642V47.1624Z" fill="#64A0B9"/>
<path d="M10.3697 46.5074L13.225 41.7062V41.5716H9.37749V42.2357H12.1275L9.25275 47.0438V47.1659H13.3097V46.5109H10.3663L10.3697 46.5074Z" fill="#64A0B9"/>
<path d="M16.3652 47.2568C17.4684 47.2568 18.2729 46.4418 18.2729 45.3057V41.5681H17.5806V45.2838C17.5806 46.0366 17.0542 46.5696 16.3652 46.5696C15.6763 46.5696 15.1338 46.0366 15.1338 45.2838V45.1929H14.4415V45.3057C14.4415 46.4384 15.2643 47.2568 16.3618 47.2568H16.3652Z" fill="#64A0B9"/>
<path d="M22.9559 47.2568C24.6405 47.2568 25.8627 46.0182 25.8627 44.3745C25.8627 42.7319 24.6405 41.483 22.9559 41.483C21.2725 41.483 20.0377 42.7215 20.0377 44.3745C20.0377 46.0275 21.2725 47.2568 22.9559 47.2568ZM22.9559 46.5731C21.6902 46.5731 20.7552 45.6234 20.7552 44.3745C20.7552 43.1267 21.6902 42.1702 22.9559 42.1702C24.2216 42.1702 25.1577 43.1106 25.1577 44.3745C25.1577 45.6384 24.2159 46.5731 22.9559 46.5731Z" fill="#64A0B9"/>
<path d="M31.1933 41.5716H27.1181V42.2357H28.8118V47.1624H29.5042V42.2357H31.1968V41.5716H31.1933Z" fill="#64A0B9"/>
<path d="M33.5222 46.489V44.6127H35.7641V43.967H33.5222V42.2392H35.9667V41.5716H32.8242V47.1624H36.0571V46.489H33.5222Z" fill="#64A0B9"/>
<path d="M41.1554 47.1624H41.9405L40.6061 44.8925C41.3362 44.6887 41.8386 44.0706 41.8386 43.2798C41.8386 42.2898 41.065 41.5716 40.027 41.5716H37.9156V47.1624H38.6148V44.9834H39.8737L41.1554 47.1624ZM38.6148 42.2392H39.9858C40.669 42.2392 41.1211 42.6812 41.1211 43.2798C41.1211 43.8795 40.669 44.3089 39.9858 44.3089H38.6148V42.2392Z" fill="#64A0B9"/>
<path d="M47.6122 47.1624H48.3641L46.0283 41.5716H45.3806L43.1044 47.1624H43.8425L44.385 45.8294H47.0606L47.6099 47.1624H47.6122ZM45.7136 42.5396L46.802 45.1837H44.647L45.7136 42.5396Z" fill="#64A0B9"/>
<path d="M51.9587 41.5716H49.9628V47.1624H50.6621V45.1561H51.9552C53.0092 45.1561 53.7989 44.3871 53.7989 43.3684C53.7989 42.3485 53.0035 41.5716 51.9552 41.5716H51.9587ZM51.9209 44.4781H50.6621V42.2449H51.9209C52.5984 42.2449 53.0905 42.7284 53.0905 43.365C53.0905 44.0015 52.5984 44.4746 51.9209 44.4746V44.4781Z" fill="#64A0B9"/>
<path d="M55.5074 47.1624H56.2055V41.5716H55.5074V47.1624Z" fill="#64A0B9"/>
<path d="M62.3076 47.1624H63.0583L60.7237 41.5716H60.0748L57.7986 47.1624H58.5379L59.0803 45.8294H61.7548L62.3041 47.1624H62.3076ZM60.4078 42.5396L61.4962 45.1837H59.3424L60.4078 42.5396Z" fill="#64A0B9"/>
<path d="M69.2885 41.5716H67.4357V47.1624H69.2885C70.925 47.1624 72.106 45.9895 72.106 44.3653C72.106 42.7411 70.925 41.5773 69.2885 41.5773V41.5681V41.5716ZM69.2724 46.5074H68.1372V42.2357H69.2724C70.5199 42.2357 71.4022 43.1394 71.4022 44.3687C71.4022 45.5981 70.5221 46.5109 69.2724 46.5109V46.5074Z" fill="#64A0B9"/>
<path d="M74.6568 46.5074V41.5716H73.9587V47.1624H77.0956V46.5074H74.6568Z" fill="#64A0B9"/>
<path d="M82.6071 47.1624H83.3589L81.0232 41.5716H80.3755L78.0992 47.1624H78.8385L79.381 45.8294H82.0555L82.6048 47.1624H82.6071ZM80.7085 42.5396L81.7968 45.1837H79.6419L80.7085 42.5396Z" fill="#64A0B9"/>
<path d="M90.2093 47.2511C91.522 47.2511 92.5531 46.4603 92.8712 45.1964H92.164C91.871 46.0528 91.1443 46.5639 90.2093 46.5639C88.9711 46.5639 88.0727 45.6602 88.0727 44.3745C88.0727 43.0887 88.9711 42.1701 90.2093 42.1701C91.1226 42.1701 91.8367 42.6559 92.1297 43.4651H92.8461C92.5291 42.2576 91.4968 41.4933 90.2093 41.4933C88.5568 41.4933 87.3563 42.6939 87.3563 44.3745C87.3563 46.0562 88.5568 47.2476 90.2093 47.2476V47.2511Z" fill="#64A0B9"/>
<path d="M94.6016 47.1624H95.3008V41.5716H94.6016V47.1624Z" fill="#64A0B9"/>
<path d="M98.2157 46.489V44.6127H100.458V43.967H98.2157V42.2392H100.66V41.5716H97.5176V47.1624H100.751V46.489H98.2157Z" fill="#64A0B9"/>
<path d="M105.689 44.2617C106.101 44.0142 106.372 43.5031 106.372 42.9978C106.372 42.1862 105.71 41.5716 104.81 41.5716H102.609V47.1624H104.831C105.795 47.1624 106.515 46.489 106.515 45.6292C106.515 45.011 106.204 44.4873 105.692 44.2617H105.689ZM105.654 43.0956C105.654 43.5595 105.293 43.9394 104.791 43.9394H103.298V42.2576H104.791C105.274 42.2576 105.654 42.6283 105.654 43.0956ZM104.822 46.4764H103.298V44.6219H104.828C105.377 44.6219 105.798 45.0214 105.798 45.5474C105.798 46.0746 105.374 46.4764 104.819 46.4764H104.822Z" fill="#64A0B9"/>
<path d="M108.43 47.1624H109.128V41.5716H108.43V47.1624Z" fill="#64A0B9"/>
<path d="M112.044 46.489V44.6127H114.285V43.967H112.044V42.2392H114.488V41.5716H111.345V47.1624H114.578V46.489H112.044Z" fill="#64A0B9"/>
<path d="M119.218 47.1624H119.916V41.5716H119.218V47.1624Z" fill="#64A0B9"/>
<path d="M128.399 41.5716H124.324V42.2357H126.018V47.1624H126.71V42.2357H128.403V41.5716H128.399Z" fill="#64A0B9"/>
<path d="M136.497 41.5716L135.15 46.0217L133.469 41.6844H133.192L131.565 46.0217L130.184 41.5716H129.441L131.234 47.1624H131.842L133.335 43.1888L134.867 47.1624H135.48L137.235 41.5716H136.494H136.497Z" fill="#64A0B9"/>
<path d="M141.417 47.2568C143.101 47.2568 144.323 46.0182 144.323 44.3745C144.323 42.7319 143.101 41.483 141.417 41.483C139.734 41.483 138.499 42.7215 138.499 44.3745C138.499 46.0275 139.734 47.2568 141.417 47.2568ZM141.417 46.5731C140.151 46.5731 139.215 45.6234 139.215 44.3745C139.215 43.1267 140.151 42.1702 141.417 42.1702C142.683 42.1702 143.618 43.1106 143.618 44.3745C143.618 45.6384 142.676 46.5731 141.417 46.5731Z" fill="#64A0B9"/>
<path d="M147.547 47.2568C148.651 47.2568 149.454 46.4418 149.454 45.3057V41.5681H148.763V45.2838C148.763 46.0366 148.235 46.5696 147.547 46.5696C146.858 46.5696 146.315 46.0366 146.315 45.2838V45.1929H145.623V45.3057C145.623 46.4384 146.446 47.2568 147.543 47.2568H147.547Z" fill="#64A0B9"/>
<path d="M152.307 46.489V44.6127H154.549V43.967H152.307V42.2392H154.752V41.5716H151.609V47.1624H154.842V46.489H152.307Z" fill="#64A0B9"/>
<path d="M158.079 47.2568C159.183 47.2568 159.987 46.4418 159.987 45.3057V41.5681H159.295V45.2838C159.295 46.0366 158.767 46.5696 158.079 46.5696C157.39 46.5696 156.847 46.0366 156.847 45.2838V45.1929H156.155V45.3057C156.155 46.4384 156.979 47.2568 158.076 47.2568H158.079Z" fill="#64A0B9"/>
<path d="M168.162 47.1624H168.948L167.614 44.8925C168.343 44.6887 168.845 44.0706 168.845 43.2798C168.845 42.2898 168.072 41.5716 167.034 41.5716H164.922V47.1624H165.621V44.9834H166.88L168.162 47.1624ZM165.618 42.2392H166.99C167.672 42.2392 168.124 42.6812 168.124 43.2798C168.124 43.8795 167.672 44.3089 166.99 44.3089H165.618V42.2392Z" fill="#64A0B9"/>
<path d="M173.269 47.2568C174.953 47.2568 176.175 46.0182 176.175 44.3745C176.175 42.7319 174.953 41.483 173.269 41.483C171.586 41.483 170.351 42.7215 170.351 44.3745C170.351 46.0275 171.586 47.2568 173.269 47.2568ZM173.269 46.5731C172.004 46.5731 171.068 45.6234 171.068 44.3745C171.068 43.1267 172.004 42.1702 173.269 42.1702C174.535 42.1702 175.47 43.1106 175.47 44.3745C175.47 45.6384 174.528 46.5731 173.269 46.5731Z" fill="#64A0B9"/>
<path d="M179.869 41.5716H178.018V47.1624H179.869C181.507 47.1624 182.688 45.9895 182.688 44.3653C182.688 42.7411 181.507 41.5773 179.869 41.5773V41.5681V41.5716ZM179.851 46.5074H178.716V42.2357H179.851C181.098 42.2357 181.981 43.1394 181.981 44.3687C181.981 45.5981 181.102 46.5109 179.851 46.5109V46.5074Z" fill="#64A0B9"/>
<path d="M185.096 46.5074L187.951 41.7062V41.5716H184.104V42.2357H186.854L183.979 47.0438V47.1659H188.036V46.5109H185.092L185.096 46.5074Z" fill="#64A0B9"/>
<path d="M189.71 47.1624H190.408V41.5716H189.71V47.1624Z" fill="#64A0B9"/>
<path d="M196.369 41.5716V45.8858L193.258 41.5716H192.621V47.1624H193.305V42.8009L196.463 47.1624H197.056V41.5716H196.369Z" fill="#64A0B9"/>
<path d="M203.538 41.5716H202.773L201.13 44.2812L199.494 41.5716H198.733L200.766 44.9362V47.1624H201.486V44.9362L203.538 41.5716Z" fill="#64A0B9"/>
</svg>
