<svg width="108" height="107" viewBox="0 0 108 107" fill="none" xmlns="http://www.w3.org/2000/svg">
<path d="M65.1511 11.9174C65.1511 12.2933 65.1334 12.6674 65.0962 13.0416C65.0607 13.4157 65.0075 13.7862 64.9348 14.1548C64.8639 14.5235 64.7752 14.8867 64.6689 15.2463C64.5625 15.6059 64.4384 15.9582 64.2983 16.3051C64.1582 16.6519 64.0022 16.9915 63.8284 17.3221C63.6565 17.6544 63.4668 17.9758 63.2646 18.2882C63.0607 18.6006 62.8427 18.9021 62.6086 19.1908C62.3763 19.4814 62.1317 19.7592 61.871 20.0262C61.6122 20.2913 61.3409 20.5438 61.0572 20.7817C60.7735 21.0196 60.481 21.243 60.176 21.4518C59.8711 21.6607 59.5555 21.8532 59.2328 22.0293C58.9101 22.2073 58.5785 22.3671 58.2399 22.5106C57.9012 22.6541 57.5555 22.7812 57.2062 22.8902C56.8552 22.9991 56.4988 23.0899 56.1389 23.1644C55.7807 23.237 55.4172 23.2915 55.0538 23.3297C54.6885 23.366 54.3215 23.3841 53.9563 23.3841C53.5893 23.3841 53.224 23.366 52.8588 23.3297C52.4935 23.2915 52.1318 23.237 51.7719 23.1644C51.412 23.0899 51.0574 22.9991 50.7063 22.8902C50.3553 22.7812 50.0095 22.6541 49.6709 22.5106C49.3322 22.3671 49.0025 22.2073 48.678 22.0293C48.3553 21.8532 48.0415 21.6607 47.7365 21.4518C47.4316 21.243 47.1372 21.0196 46.8536 20.7817C46.5699 20.5438 46.2986 20.2913 46.0397 20.0262C45.7809 19.7592 45.5344 19.4814 45.3022 19.1908C45.0699 18.9021 44.8518 18.6006 44.6479 18.2882C44.444 17.9758 44.2561 17.6544 44.0823 17.3221C43.9104 16.9915 43.7526 16.6519 43.6125 16.3051C43.4724 15.9582 43.3501 15.6059 43.2437 15.2463C43.1373 14.8867 43.0469 14.5235 42.976 14.1548C42.9051 13.7862 42.8501 13.4157 42.8146 13.0416C42.7792 12.6674 42.7614 12.2933 42.7614 11.9174C42.7614 11.5415 42.7792 11.1674 42.8146 10.7933C42.8501 10.4191 42.9051 10.0487 42.976 9.68C43.0469 9.31133 43.1373 8.94812 43.2437 8.58853C43.3501 8.22895 43.4724 7.87663 43.6125 7.52976C43.7526 7.18289 43.9104 6.84328 44.0823 6.51094C44.2561 6.18041 44.444 5.85897 44.6479 5.5466C44.8518 5.23424 45.0699 4.93277 45.3022 4.64219C45.5344 4.35162 45.7809 4.07376 46.0397 3.80861C46.2986 3.54347 46.5699 3.29103 46.8536 3.05313C47.1372 2.81522 47.4316 2.59184 47.7365 2.38299C48.0415 2.17414 48.3553 1.98164 48.678 1.80366C49.0025 1.6275 49.3322 1.46769 49.6709 1.32422C50.0095 1.17893 50.3553 1.05362 50.7063 0.944657C51.0574 0.835692 51.412 0.744888 51.7719 0.670429C52.1318 0.597786 52.4935 0.543304 52.8588 0.505166C53.224 0.468844 53.5893 0.450684 53.9563 0.450684C54.3215 0.450684 54.6885 0.468844 55.0538 0.505166C55.4172 0.543304 55.7807 0.597786 56.1389 0.670429C56.4988 0.744888 56.8552 0.835692 57.2062 0.944657C57.5555 1.05362 57.9012 1.17893 58.2399 1.32422C58.5785 1.46769 58.9101 1.6275 59.2328 1.80366C59.5555 1.98164 59.8711 2.17414 60.176 2.38299C60.481 2.59184 60.7735 2.81522 61.0572 3.05313C61.3409 3.29103 61.6122 3.54347 61.871 3.80861C62.1317 4.07376 62.3763 4.35162 62.6086 4.64219C62.8427 4.93277 63.0607 5.23424 63.2646 5.5466C63.4668 5.85897 63.6565 6.18041 63.8284 6.51094C64.0022 6.84328 64.1582 7.18289 64.2983 7.52976C64.4384 7.87663 64.5625 8.22895 64.6689 8.58853C64.7752 8.94812 64.8639 9.31133 64.9348 9.68C65.0075 10.0487 65.0607 10.4191 65.0962 10.7933C65.1334 11.1674 65.1511 11.5415 65.1511 11.9174Z" fill="#1D4B66"/>
<path d="M52.52 102.478C51.3357 101.675 50.2346 100.715 49.2151 99.5978C46.6141 96.7575 44.3393 93.741 42.3855 90.561C41.7561 89.5331 41.1497 88.5452 40.5699 87.5935C40.1302 86.2914 39.4742 84.6751 38.5965 82.741C37.0115 79.2486 35.6835 76.5191 34.6072 74.5486C32.3431 70.4007 29.6995 66.4707 26.5967 62.9857C24.7776 60.9408 22.7564 58.6834 20.5312 56.2117C19.8132 55.4108 18.8043 54.1868 17.5136 52.5396C15.3044 49.721 13.6023 46.7063 12.4108 43.4882C10.8257 39.2132 9.95342 34.9327 9.44633 30.3961C9.11833 27.4704 9.12542 24.5502 9.46406 21.6317C9.47116 21.5827 9.46406 21.5373 9.45697 21.4882C9.44456 21.4265 9.46406 21.3738 9.51903 21.3284C9.56867 21.2867 9.57931 21.2067 9.53676 21.1559C9.50839 21.1196 9.4552 21.1032 9.37364 21.096C11.6484 17.3676 14.2158 14.1349 17.0774 11.3981C17.5313 10.9622 18.5189 10.0742 20.0313 8.73028C21.299 7.60431 22.3238 6.76165 23.1003 6.19322C24.5418 5.14534 26.0666 4.17193 27.6747 3.27478C27.7297 3.24209 27.79 3.3111 27.7527 3.36922C26.3733 5.44318 25.345 7.70965 24.6748 10.1704C23.3787 14.9159 23.3486 20.1207 24.728 24.8698C25.4265 27.2779 26.368 29.568 27.5613 31.7418C28.6712 33.7686 30.0949 36.2929 31.8271 39.3131C33.4814 42.1952 35.0274 45.07 36.3022 48.092C38.7933 53.9979 40.6639 59.813 41.9174 65.5318C42.6585 68.9097 43.2454 72.0207 43.6798 74.8646C44.2418 78.524 44.8074 81.7875 45.3819 84.6515C46.3907 89.6838 47.7861 93.9861 49.5644 97.562C49.9474 98.3375 50.935 99.9774 52.52 102.484V102.478Z" fill="#62A0B9"/>
<path d="M98.1028 20.5837C98.2109 20.9832 98.3049 21.3646 98.3864 21.7278C98.468 22.1037 98.5123 22.4851 98.5141 22.8737C98.523 24.3157 98.5141 25.7577 98.4857 27.2015C98.3971 31.373 97.734 35.4174 96.4911 39.3347C95.5301 42.3675 94.0762 45.2787 92.2412 47.7885C90.7128 49.8861 89.2749 51.5787 87.9309 52.8681C84.8725 55.8011 81.3708 58.5833 77.8052 61.2021C75.073 63.2125 72.4986 65.3391 70.0873 67.582C68.9862 68.6044 68.043 69.5778 67.2646 70.5004C65.7044 72.3456 64.4012 74.0672 63.3569 75.6653C62.3303 77.2417 61.3711 79.0705 60.4846 81.1517C59.7506 82.8734 59.2701 84.8093 58.9137 86.6181C57.8676 91.8938 58.63 96.8408 61.2009 101.45C61.3055 101.641 61.5715 102.044 61.9899 102.669C62.263 103.072 62.5094 103.491 62.7257 103.927C62.1973 103.691 61.7169 103.393 61.2878 103.035C58.6637 100.86 56.5733 98.2537 55.0219 95.2191C53.1603 91.5887 52.0681 87.8004 51.7525 83.8595C51.616 82.1978 51.5309 80.4761 51.6266 78.8162C51.772 76.1902 52.0663 73.8692 52.4989 71.8479C53.1035 69.0367 54.0113 66.2944 55.2258 63.6193C57.1726 59.337 59.6087 55.4379 62.5395 51.9237C63.8746 50.3201 65.3976 48.6584 67.1051 46.9368C70.1405 43.8785 72.7255 41.1399 74.8638 38.7245C76.057 37.3733 77.2786 35.8569 78.5269 34.1825C80.8087 31.1133 82.5427 27.828 83.4399 24.0687C84.9576 17.6943 84.3477 11.6449 81.6119 5.92608C81.1952 5.05436 80.7307 4.26982 80.213 3.57063C80.0481 3.34906 80.0836 3.30548 80.3176 3.44713C85.9398 6.7869 90.8706 11.062 95.1205 16.2705C96.101 17.4709 97.0975 18.9092 98.1063 20.5837H98.1028Z" fill="#62A0B9"/>
<path d="M98.1027 20.5837L99.4519 22.5869C99.3899 22.576 99.3526 22.5705 99.3473 22.576C99.2604 22.6305 99.2303 22.7449 99.2746 22.8448C99.9891 24.4139 100.523 26.0211 100.874 27.661C101.342 29.8276 101.594 31.3585 101.635 32.2466C101.821 36.2456 101.652 39.7379 101.127 42.7272C100.448 46.6027 99.0938 50.4891 97.0601 54.3864C95.8279 56.7473 94.3439 58.8994 92.6098 60.8426C90.406 63.3106 88.0496 65.4917 85.5373 67.3859C84.8795 67.8799 84.188 68.4138 83.4557 68.9859C80.7678 71.0834 79.0019 72.5072 78.1544 73.2518C75.2254 75.8161 72.5464 78.7219 70.1191 81.9708C69.4861 82.8153 68.9649 83.7361 68.378 84.635C66.644 87.2883 65.3958 90.2195 64.6227 93.4248C64.0802 95.6695 63.9454 97.9378 64.2167 100.222C64.3178 101.072 64.5128 101.846 64.8036 102.552C65.3231 103.813 65.7238 104.855 66.0039 105.678C64.8532 105.464 63.7557 104.881 62.7203 103.927C62.504 103.491 62.2575 103.072 61.9845 102.669C61.5643 102.048 61.3019 101.641 61.1955 101.45C58.6246 96.8372 57.864 91.8939 58.9083 86.6182C59.2647 84.8094 59.7487 82.8734 60.4792 81.1518C61.3657 79.0706 62.3249 77.2399 63.3515 75.6654C64.3958 74.0673 65.7007 72.3456 67.2592 70.5005C68.0393 69.5779 68.9808 68.6045 70.0819 67.582C72.4932 65.3392 75.0676 63.2126 77.7998 61.2022C81.3654 58.5797 84.8688 55.8011 87.9273 52.8682C89.2712 51.5788 90.7074 49.8862 92.2375 47.7886C94.0708 45.2788 95.5265 42.3676 96.4874 39.3348C97.7303 35.4175 98.3934 31.3731 98.4821 27.2015C98.5122 25.7577 98.5193 24.3158 98.5087 22.8738C98.5087 22.4852 98.4626 22.1038 98.381 21.7279C98.303 21.3647 98.2073 20.9833 98.0973 20.5837H98.1027Z" fill="#377595"/>
<path d="M9.37195 21.0955C9.45351 21.1027 9.5067 21.1191 9.53507 21.1554C9.57585 21.2062 9.56876 21.2861 9.51557 21.3279C9.46238 21.3733 9.4411 21.426 9.45528 21.4877C9.46415 21.5368 9.46947 21.5822 9.46238 21.6312C9.12196 24.5478 9.11841 27.4699 9.44465 30.3956C9.95173 34.9322 10.8241 39.2127 12.4091 43.4877C13.6006 46.7058 15.3027 49.7205 17.5101 52.5391C18.8026 54.1862 19.8079 55.4103 20.5296 56.2112C22.7547 58.6828 24.7742 60.9402 26.5951 62.9851C29.6978 66.4702 32.3414 70.4002 34.6056 74.5481C35.68 76.5186 37.0115 79.2481 38.5949 82.7405C39.4707 84.6746 40.1285 86.2909 40.5682 87.593C39.8892 86.8085 39.2278 86.0239 38.5931 85.2376C37.813 84.275 37.1516 83.4905 36.6162 82.8821C34.9052 80.9407 33.1393 78.874 31.4194 77.0943C28.4372 74.0069 25.3469 71.4081 22.0313 68.5769C19.1767 66.1379 16.519 63.1668 14.0492 59.6581C11.6432 56.2384 9.73719 52.5064 8.33119 48.4583C7.82233 46.9964 7.45 45.6779 7.2071 44.5011C6.71065 42.0766 6.40392 39.9155 6.29044 38.025C6.19293 36.4504 6.20357 34.6852 6.32591 32.7329C6.41633 31.2383 6.75852 29.8254 7.0032 28.3525C7.10781 27.7151 7.26738 27.0304 7.48369 26.3022C7.85957 25.0382 8.22658 23.7379 8.58296 22.4012C8.70884 22.0017 8.97125 21.564 9.37195 21.0955Z" fill="#377595"/>
<path d="M8.5829 22.3999C8.22652 23.7365 7.85951 25.0387 7.48363 26.299C7.26732 27.0291 7.10775 27.7137 7.00314 28.3494C6.75847 29.8222 6.41805 31.2369 6.32585 32.7316C6.20706 34.6839 6.19287 36.4473 6.29039 38.0236C6.40741 39.9142 6.71059 42.0717 7.20704 44.498C7.44994 45.6784 7.82228 46.9951 8.33113 48.4552C9.73714 52.5032 11.6449 56.2371 14.0491 59.6549C16.5172 63.1654 19.1767 66.1347 22.0313 68.5737C25.3468 71.4032 28.4372 74.002 31.4194 77.0911C33.1392 78.8727 34.9034 80.9394 36.6161 82.8808C37.1533 83.4874 37.8129 84.2755 38.593 85.2362C39.2278 86.0226 39.8891 86.8071 40.5682 87.5917C41.1479 88.5415 41.7525 89.5313 42.3837 90.5592C44.3358 93.7409 46.6124 96.7538 49.2116 99.596C50.2311 100.713 51.3322 101.674 52.5165 102.476C53.7701 103.949 55.2736 105.175 57.0253 106.159C57.4314 106.388 57.8285 106.47 58.2629 106.588C58.2966 106.595 58.325 106.611 58.3445 106.639L58.387 106.684C58.4367 106.739 58.4012 106.829 58.3267 106.831C55.3551 106.906 52.4988 107.027 49.646 106.791C48.295 106.679 46.9333 106.504 45.5628 106.272C43.4475 105.914 41.5345 105.52 39.8253 105.084C38.3395 104.705 36.609 104.138 34.641 103.384C29.1074 101.259 24.1713 98.3356 19.8292 94.6036C17.8806 92.9291 15.8026 90.8497 14.1059 88.7758C8.6946 82.1489 4.44468 74.1963 2.44116 65.875C0.820624 59.1483 0.372051 52.3198 1.09544 45.3896C1.40927 42.3586 2.005 39.5328 2.64152 36.6834C3.21597 34.1136 4.12376 31.4149 5.3631 28.5927C6.35244 26.3444 7.42335 24.2814 8.57581 22.4035L8.5829 22.3999Z" fill="#1D4B66"/>
<path d="M99.4521 22.5868C100.097 23.6075 100.688 24.6553 101.225 25.7341C105.564 34.4386 107.447 43.8731 107.221 53.5982C107.064 60.3467 105.739 66.8193 103.246 73.0084C102.094 75.8615 100.686 78.6946 99.0213 81.5041C97.0869 84.7676 94.6295 88.0074 91.649 91.2237C89.3441 93.7081 86.7803 95.9074 83.9541 97.8197C78.4613 101.537 72.4792 104.156 66.0076 105.68C65.7257 104.857 65.325 103.813 64.8055 102.554C64.5148 101.85 64.3197 101.074 64.2204 100.226C63.9474 97.9396 64.0821 95.6731 64.6247 93.4266C65.3977 90.2231 66.6477 87.2919 68.3817 84.6368C68.9686 83.7378 69.4916 82.8171 70.1228 81.9744C72.5501 78.7218 75.2256 75.8161 78.1564 73.2536C79.0039 72.509 80.7716 71.087 83.4577 68.9895C84.1917 68.4174 84.8832 67.8835 85.5392 67.3895C88.0498 65.4935 90.4062 63.3142 92.6118 60.8443C94.3476 58.903 95.8316 56.7491 97.0621 54.39C99.0939 50.4909 100.449 46.6063 101.131 42.729C101.654 39.7397 101.821 36.2456 101.638 32.2502C101.596 31.3585 101.342 29.8294 100.876 27.6628C100.523 26.0229 99.9893 24.4156 99.2783 22.8483C99.234 22.7466 99.2642 22.6322 99.3493 22.5778C99.3564 22.5741 99.3918 22.5778 99.4539 22.5905L99.4521 22.5868Z" fill="#1D4B66"/>
</svg>
