<svg width="50" height="51" viewBox="0 0 50 51" fill="none" xmlns="http://www.w3.org/2000/svg">
<path fill-rule="evenodd" clip-rule="evenodd" d="M0.60214 9.0548C4.56725 11.69 8.50081 14.3402 11.8211 17.7526C9.91785 25.8855 17.5141 32.3835 24.442 36.2117C27.1541 37.7104 28.3528 38.761 31.372 38.2561L43.2618 49.5259C20.8861 56.7958 -4.22522 26.2957 0.60214 9.0548ZM34.437 35.3584L37.0452 32.7957C37.7972 32.0555 39.0389 32.0462 39.804 32.7741L49.42 41.9333C50.1847 42.6613 50.1944 43.8625 49.4423 44.6023L46.8333 47.1654C46.0808 47.9052 44.8391 47.9145 44.074 47.1866L34.458 38.0274C33.6929 37.2998 33.6837 36.0986 34.437 35.3584ZM2.94579 3.66443L4.83854 1.44106C5.6499 0.488069 7.12036 0.350533 8.10543 1.13547L17.9498 8.98115C18.9349 9.76689 19.0758 11.1886 18.2653 12.1429L16.3717 14.365C15.5599 15.3192 14.0899 15.4555 13.1044 14.6706L3.26167 6.82492C2.2766 6.03998 2.13359 4.61742 2.94579 3.66443Z" fill="#A8C453"/>
</svg>
